#!OML:ASF E:\id_vita\Project 1\Capture day 1\Session 1\Female.ASF
:FULLY-SPECIFIED
:DEGREES
1457
root 7.55362 19.8902 -2.17729 59.6701 216.025 -11.3021
lowerback 14.9271 -0.942639 -9.47633
upperback 8.67165 -3.26022 -0.765939
thorax 1.36063 -2.29338 4.93654
lowerneck 0.0952444 -11.3765 -13.4779
upperneck 2.03063 -17.5242 32.7525
head 5.0642 -8.69202 11.7791
rclavicle 3.18055e-015 5.40197e-014
rhumerus 20.2201 19.8462 -84.8684
rradius 29.722
rwrist 24.4851
rhand -36.4288 24.0283
rfingers 7.12502
rthumb -9.52358 -5.73644
lclavicle 3.18055e-015 5.40197e-014
lhumerus 8.60265 5.04989 78.1347
lradius 26.2207
lwrist -0.207147
lhand -13.1247 27.5271
lfingers 7.12502
lthumb 12.973 57.1038
rfemur -77.0596 -0.226864 21.6051
rtibia 118.535
rfoot 45.6647 21.1854
rtoes 17.0253
lfemur -121.284 6.2929 -18.0461
ltibia 132.967
lfoot -26.9055 -41.8973
ltoes 30.5806
1458
root 7.57445 19.8892 -2.19474 59.849 216.536 -11.6029
lowerback 15.1602 -1.01995 -9.41997
upperback 8.72702 -3.38984 -0.89331
thorax 1.30334 -2.35501 4.79559
lowerneck 0.0572755 -11.288 -13.316
upperneck 2.18395 -17.4656 32.8359
head 5.09428 -8.65598 11.7938
rclavicle -7.63333e-014 -2.94698e-014
rhumerus 20.0895 19.7567 -85.1159
rradius 29.8166
rwrist 24.4947
rhand -36.4998 24.1773
rfingers 7.12502
rthumb -9.59209 -5.58433
lclavicle -7.63333e-014 -2.94698e-014
lhumerus 8.98498 6.891 78.6225
lradius 25.4653
lwrist -0.616049
lhand -12.1639 28.4513
lfingers 7.12502
lthumb 13.899 57.9668
rfemur -76.9501 -0.483894 21.9372
rtibia 118.568
rfoot 45.031 20.9862
rtoes 16.9818
lfemur -121.375 6.15105 -17.7336
ltibia 132.842
lfoot -26.7508 -42.212
ltoes 30.4206
1459
root 7.59911 19.8823 -2.21286 59.9146 216.947 -11.6829
lowerback 15.3203 -0.975292 -9.53585
upperback 8.78675 -3.3707 -0.940169
thorax 1.28585 -2.35326 4.8143
lowerneck 0.161993 -11.1367 -13.2483
upperneck 2.18393 -17.2532 32.8182
head 5.01055 -8.56555 11.8168
rclavicle -4.37326e-015 4.46272e-014
rhumerus 19.9263 19.68 -85.2464
rradius 30.1201
rwrist 24.4764
rhand -36.4461 23.9032
rfingers 7.12502
rthumb -9.54028 -5.86081
lclavicle -4.37326e-015 4.46272e-014
lhumerus 9.4422 8.38262 79.1088
lradius 24.7101
lwrist -0.851983
lhand -11.1943 28.4601
lfingers 7.12502
lthumb 14.8333 57.9092
rfemur -76.8313 -0.398015 22.2092
rtibia 118.683
rfoot 44.4655 20.1553
rtoes 17.8431
lfemur -121.466 6.43083 -17.4414
ltibia 132.763
lfoot -25.9316 -43.1073
ltoes 31.5012
1460
root 7.62246 19.8727 -2.22916 59.9953 217.353 -11.7521
lowerback 15.4229 -0.887383 -9.62534
upperback 8.86492 -3.2845 -0.979417
thorax 1.30696 -2.31996 4.81422
lowerneck 0.168614 -11.0739 -13.234
upperneck 2.25547 -17.1699 32.7736
head 5.00143 -8.51979 11.8122
rclavicle 6.0033e-014 4.16951e-014
rhumerus 19.7847 19.673 -85.2122
rradius 30.5963
rwrist 24.0427
rhand -36.3423 23.2996
rfingers 7.12502
rthumb -9.44008 -6.46896
lclavicle 6.0033e-014 4.16951e-014
lhumerus 10.0207 9.43439 79.5613
lradius 23.9377
lwrist -1.10017
lhand -10.1171 28.2609
lfingers 7.12502
lthumb 15.8709 57.6305
rfemur -76.6917 -0.226116 22.4225
rtibia 118.84
rfoot 43.7513 19.0689
rtoes 18.5113
lfemur -121.593 6.72318 -17.2112
ltibia 132.707
lfoot -25.3729 -43.8602
ltoes 33.0586
1461
root 7.6433 19.8585 -2.24209 60.1527 217.8 -11.8692
lowerback 15.4715 -0.837629 -9.72594
upperback 8.92029 -3.23942 -0.999667
thorax 1.34072 -2.30591 4.84338
lowerneck 0.172951 -11.0334 -13.1858
upperneck 2.40006 -17.146 32.7462
head 5.02758 -8.49705 11.8005
rclavicle -1.20066e-013 2.82274e-014
rhumerus 19.6438 19.8989 -84.9903
rradius 31.1561
rwrist 23.2043
rhand -36.2018 22.6095
rfingers 7.12502
rthumb -9.30449 -7.16522
lclavicle -1.20066e-013 2.82274e-014
lhumerus 10.757 10.7605 80.1477
lradius 22.9891
lwrist -2.21396
lhand -9.28355 28.052
lfingers 7.12502
lthumb 16.6735 57.3559
rfemur -76.5995 -0.106888 22.6527
rtibia 119.026
rfoot 42.1575 18.6058
rtoes 7.70001
lfemur -121.815 6.91964 -17.0972
ltibia 132.681
lfoot -25.4852 -44.2169
ltoes 29.7282
1462
root 7.66396 19.8477 -2.25723 60.2984 218.22 -11.9232
lowerback 15.4799 -0.759836 -9.83099
upperback 8.97803 -3.15354 -1.03298
thorax 1.39117 -2.2723 4.85393
lowerneck 0.273822 -10.9435 -13.115
upperneck 2.40018 -17.022 32.758
head 4.97102 -8.44663 11.8194
rclavicle -4.33351e-014 4.32357e-014
rhumerus 19.5876 19.8327 -84.9409
rradius 31.3991
rwrist 22.8022
rhand -36.1979 22.294
rfingers 7.12502
rthumb -9.3008 -7.48082
lclavicle -4.33351e-014 4.32357e-014
lhumerus 11.6035 11.8534 80.6785
lradius 22.0303
lwrist -3.53483
lhand -8.33497 27.7824
lfingers 7.12502
lthumb 17.5865 57.007
rfemur -76.6214 -0.0340928 22.9728
rtibia 119.193
rfoot 41.6768 17.5689
rtoes 7.08585
lfemur -122.034 7.08429 -17.1396
ltibia 132.643
lfoot -26.3193 -44.0436
ltoes 30.5746
